<svg width="1280" height="640" viewBox="0 0 1280 640" fill="none" xmlns="http://www.w3.org/2000/svg">
  <rect width="1280" height="640" rx="36" fill="#081219"/>
  <rect width="1280" height="640" rx="36" fill="url(#bg)"/>
  <circle cx="1092" cy="148" r="132" fill="url(#glow1)" opacity="0.33"/>
  <circle cx="188" cy="522" r="172" fill="url(#glow2)" opacity="0.26"/>
  <rect x="62" y="62" width="1156" height="516" rx="28" fill="rgba(6,12,18,0.58)" stroke="rgba(255,255,255,0.10)"/>

  <rect x="730" y="118" width="392" height="396" rx="30" fill="#0D1B23" stroke="#345063"/>
  <rect x="764" y="152" width="324" height="80" rx="20" fill="#11232D"/>
  <rect x="764" y="252" width="324" height="226" rx="24" fill="#10222D" stroke="#35576A"/>

  <rect x="794" y="286" width="124" height="74" rx="18" fill="#162D39"/>
  <rect x="934" y="286" width="124" height="74" rx="18" fill="#162D39"/>
  <rect x="794" y="378" width="264" height="66" rx="18" fill="#152A35"/>

  <path d="M820 188H1004" stroke="#F2B96C" stroke-width="10" stroke-linecap="round"/>
  <path d="M820 316H892" stroke="#6FE2C4" stroke-width="10" stroke-linecap="round"/>
  <path d="M960 316H1032" stroke="#6BCEFF" stroke-width="10" stroke-linecap="round"/>
  <path d="M820 411H1032" stroke="#F2B96C" stroke-width="10" stroke-linecap="round"/>

  <text x="108" y="184" fill="#8FD6FF" font-family="Space Grotesk, Arial, sans-serif" font-size="26" font-weight="700" letter-spacing="2">LENOVO TAB PLUS / TB351FU</text>
  <text x="108" y="270" fill="#F7FBFF" font-family="Space Grotesk, Arial, sans-serif" font-size="64" font-weight="700">Android Vendor Tree</text>
  <text x="108" y="332" fill="#C9D9E5" font-family="IBM Plex Sans, Arial, sans-serif" font-size="30">Public vendor definitions for Android 16 bring-up</text>
  <text x="108" y="385" fill="#C9D9E5" font-family="IBM Plex Sans, Arial, sans-serif" font-size="30">without redistributing proprietary Lenovo blobs.</text>

  <rect x="108" y="434" width="214" height="56" rx="18" fill="#10222C" stroke="#294B5D"/>
  <rect x="338" y="434" width="218" height="56" rx="18" fill="#10222C" stroke="#294B5D"/>
  <rect x="572" y="434" width="130" height="56" rx="18" fill="#10222C" stroke="#294B5D"/>

  <text x="140" y="470" fill="#F2B96C" font-family="IBM Plex Sans, Arial, sans-serif" font-size="24" font-weight="700">Blob-safe public tree</text>
  <text x="381" y="470" fill="#6BCEFF" font-family="IBM Plex Sans, Arial, sans-serif" font-size="24" font-weight="700">Vendor wiring</text>
  <text x="618" y="470" fill="#6FE2C4" font-family="IBM Plex Sans, Arial, sans-serif" font-size="24" font-weight="700">A16</text>

  <defs>
    <linearGradient id="bg" x1="0" y1="0" x2="1280" y2="640" gradientUnits="userSpaceOnUse">
      <stop stop-color="#07131A"/>
      <stop offset="0.56" stop-color="#0F202A"/>
      <stop offset="1" stop-color="#0A151D"/>
    </linearGradient>
    <radialGradient id="glow1" cx="0" cy="0" r="1" gradientUnits="userSpaceOnUse" gradientTransform="translate(1092 148) rotate(90) scale(132)">
      <stop stop-color="#6BCFFF"/>
      <stop offset="1" stop-color="#6BCFFF" stop-opacity="0"/>
    </radialGradient>
    <radialGradient id="glow2" cx="0" cy="0" r="1" gradientUnits="userSpaceOnUse" gradientTransform="translate(188 522) rotate(90) scale(172)">
      <stop stop-color="#F2B96C"/>
      <stop offset="1" stop-color="#F2B96C" stop-opacity="0"/>
    </radialGradient>
  </defs>
</svg>
